<svg version="1" xmlns="http://www.w3.org/2000/svg" width="682.667" height="682.667" viewBox="0 0 512.000000 512.000000"><path d="M158.7 12.2c.2 6.8.8 16 1.2 20.4.6 7.1.5 8.3-1 9.2-1 .6-2.7.9-3.9.7-1.3-.2-3.2.2-4.3 1-1.3.9-2.6 1.1-3.7.5-1.2-.6-1.7-.5-1.7.4 0 1.4 4.8 1.3 7-.1 2.2-1.4 3.9-1.3 2.7.2-1.4 1.7.7 3.2 2.3 1.6 1.4-1.4 5-1.5 4.2 0-.4.6-1.4.8-2.2.4-1.4-.5-1.4-.3-.2 1.2.7 1 1 1.5.5 1.1-.7-.6-3.1 1.8-9.5 9.4-4.4 5.1-10.1 15.2-9 15.9.8.4.8.9.1 1.3-.6.3-1.4.1-1.7-.4-.5-.7-1.2-.5-2.1.7-1.2 1.6-1.3 1.6-1.4.1 0-.9.7-2.4 1.6-3.2.8-.9 1.2-2.1.8-2.7-.5-.8-.3-.9.6-.4 1 .6 1.2.4.7-.7-.3-.9.1-2.4.8-3.5.8-1 1.5-1.3 1.5-.7 0 .5-.6 1.6-1.2 2.3-1.1 1.1-1 1.2 0 .6.7-.4 1.7-1.8 2.3-3.2.5-1.4 1.4-2.1 2.1-1.7.6.4.8.3.4-.4-.3-.6-.2-1.3.4-1.7.6-.4.8-1 .5-1.5-.3-.5-.1-1.1.4-1.5.6-.3.8-1.2.5-1.9-.3-.8 1.1-2.8 3.5-4.6 2.2-1.8 3.8-3.7 3.5-4.2-.4-.5-2.2.5-4.2 2.4-2 1.8-3 2.6-2.4 1.6 1.4-1.7.7-2.5-1.8-2.3-.8 0-1.4.8-1.2 1.6.1.9-.5 2.2-1.3 2.9-.8.7-1.5.9-1.5.6 0-1.6-2.7 2.2-4.5 6.4-1.1 2.5-2.7 5.8-3.7 7.4l-1.7 3 .4-3c.2-1.6.4-3.4.4-3.9.1-.6.6-.3 1.2.5.9 1.2 1 1.2.5-.3-.4-1.1.2-3.1 1.5-4.8 1.4-2 1.7-3.4 1.1-4.5-.8-1.5-1-1.4-1.7.2-.4 1.1-.8 2.8-.9 3.9-.1 1.1-.6 1.9-1.3 1.8-.8-.2-1 .4-.6 1.4.5 1.2.3 1.4-.7.8-.9-.5-1.1-.4-.6.3.4.7.2 2-.4 2.9-.8 1.4-1 1.4-.9.3.1-.8.1-2.2 0-3-.1-1.3-.3-1.3-1-.1-.5.8-.7 2.1-.3 2.9.3.9.1 1.3-.5.9-1.6-1-6.8 15.4-7.2 23-.2 2.2-1.9 1.4-2.4-1-.4-2.2-.4-2.2-.6 0 0 1.2.6 2.9 1.5 3.7.8.9 1.2 2 .9 2.6-.3.5-.1 1 .5 1 .7 0 .6.5-.2 1.4-.9 1-1.5 1.1-2 .2-.5-.6-.8-.1-.8 1.3 0 1.3-.3 2.1-.6 1.8-.4-.4-1.4.1-2.3 1.1-2.4 2.6-3.9 2.5-6.7-.5-1.4-1.6-2.2-2.2-1.8-1.4 1.3 2.5 1.3 6.1-.1 6.1-1.8 0-3.8-2.7-2.9-4.1.5-.8.3-.9-.6-.4-1 .6-1.2.4-.7-.9.4-1 .7-2 .7-2.2 0-.3.3-.3.8-.1.4.3.8-1 .9-2.9.1-2.2-.3-3.4-1.2-3.4-1.8 0-2.9 3.2-1.3 4.1.9.6.9 1.1-.1 2.2-.7.9-.9 2.6-.5 4.1.4 1.6.2 2.6-.4 2.6-1.4 0-2.6-6.1-1.8-9.2.3-1.2.3-1.7 0-1-.3.6-.9 1-1.4.7-.4-.3-1 .4-1.3 1.5-.3 1.1-.2 1.8.3 1.5 1-.6 2.3 6.2 1.5 7.5-.6 1 .7 1.4 3.3 1.1.6-.1 1.2.4 1.2 1.1 0 .9.2 1 .8.2.5-.9 1-.8 2 .2 1 1.1.8 1.5-.8 2.4-1.4.7-2 .7-2 0 0-.5-.8-1-1.7-.9-1.1 0-1.3.3-.5.6.6.2 1.2.8 1.2 1.3 0 1.6-3.5 1.7-6.3.1-2.1-1.2-2.7-2.2-2.4-4.1.2-1.4.2-1.9-.1-1.1-.3 1.2-.5 1.2-1.4 0-.8-1.1-.9-1-.4.3.3 1 .1 2-.4 2.3-.6.4-1 1.4-1 2.3 0 1.5.2 1.5 1.1.2.9-1.3 1-1.3.8 0-.3 2.8.1 4.1 1 3.6.5-.3 1.2.1 1.5 1 .9 2.4.7 3.1-.4 1.4-.6-.9-1-1-1-.3 0 1.7 1.5 2.4 6.1 2.8 5.2.6 6.2 1.2 5.7 4-.4 1.7-.1 2.1 1.2 1.8 1-.3 1.6.2 1.6 1.4 0 1 .3 3.1.7 4.8.6 2.3.5 2.6-.3 1.5-.9-1.2-1-.8-.5 1.7.4 1.8.1 4-.5 5-.9 1.5-1 1.4-.5-.7.6-2.3.5-2.3-1.3.5-2 3.2-2 4.5.3 4.5 1.6 0 2.6 2.5 1.9 4.5-.4.8-.1 2.2.6 3 1.7 2.1.3 5.2-2.6 5.8-2.5.4-2.5.4-1.9-5 .5-5.1.4-5.3-1.4-4.3-1.4.7-2.3.7-3.3-.3-.9-.9-3.9-1.1-10.8-.7-5.2.3-10.7.2-12.3-.3-1.5-.5-4.6-.6-7-.2-2.3.3-6.2.7-8.7.9-7.9.5-13.1 1.8-13.7 3.2-.3.9-1.3 1.2-2.3.9-1.1-.3-2 .1-2.4 1-.3.9-1 1.4-1.4 1.1-.9-.5-1.7.8-4.2 6.9-1.5 3.6-1.5 24.1 0 32.9 1.2 7.3.5 10.5-2.7 11.7-3.7 1.4-4.1 1.2-4.8-2.3-1.2-5.4-5.6-11.8-8.2-11.8-.7 0-1.3-.7-1.3-1.5s-2-3.6-4.5-6.2c-3-3.1-4.5-5.5-4.5-7.3 0-3.2-1.7-5-4.5-5-4.4 0-5.3 2.6-5.4 15.4-.2 11.8-.1 12 2.7 15.5 2.3 2.9 3 4.9 3.4 9.8.5 7.1 2.6 10.3 6.8 10.3 1.9 0 4.3 1.6 8.4 5.5 6.2 6.1 5.9 5.9 8.7 4.5 1.3-.8 1.9-.7 1.9 0 0 .6.4.9.8.6 1.2-.7 5.2 3.1 5.2 4.9 0 1.8 3.7 3 5.3 1.7 1.6-1.4 9.7-4.2 12.1-4.2 1.1 0 3.9.9 6.2 2.1 3.4 1.6 4.6 2.9 5.9 6.4 1.4 3.5 1.5 4.7.4 6.6-.6 1.3-1.2 3.7-1.1 5.3.1 3.7-2.3 6.6-5.5 6.6-1.2 0-2.3.4-2.3.9s-.9.7-1.9.4c-2.8-.7-4.6 2.9-3 5.9.7 1.3 1.2 2.4 1.1 2.5-.1.2-.2.9-.2 1.7 0 2.9 11.8.2 15-3.4 1.9-2.3 8.2-4.7 12.5-4.9 4.3-.2 5.5-.7 8.3-3.6 1.8-1.9 3.2-4.5 3.2-5.9 0-2.9-2.5-9.1-5.2-12.9-7.4-10.4 5.3-27.5 20.9-28 3.2-.1 7.6.2 9.7.7 3.2.7 3.7.6 3.1-.5-.5-.8.1-.6 1.2.4l2.1 1.8-1-4.3c-2.3-9.7.7-42.5 5.8-65.1.9-4 1.7-8.4 1.8-9.9.1-1.4.5-2.4 1-2 .5.3.7-.2.3-1.1-.3-1-.2-1.7.4-1.7.6 0 .8-.9.4-2.1-.5-1.4-.3-1.9.3-1.5.6.3 1.9-.5 3-1.9s2.7-2.5 3.5-2.5c.9 0 1.9-.4 2.2-1 .4-.6-.1-.7-1.2-.4-1.2.5-1.1.1.5-1.1 1.3-.9 2.6-1.4 2.9-1.1.4.3.1.6-.6.6s-.9.5-.6 1c.4.6.1 1.7-.5 2.6-1.1 1.2-.9 1.4.6 1.1 1.1-.1 2.4-.6 3.1-1 .6-.4 1.4-.1 1.6.5.4 1 .6 1 .6 0 .1-.6.7-1.2 1.5-1.2s1.7.6 2 1.2c.3.7.3.3.1-.8-.7-2.6 1.8-3.9 3.5-1.8 1 1.1.9 1.4-.4 1.4-.9 0-1.6.4-1.6 1s1.5.8 3.5.4c3.5-.5 4-.1 3.6 3.6-.2 1.3-.1 1.3.8 0 1.3-1.9 4.7-.1 4.5 2.4-.1 1 .5 1.5 1.5 1.4.9-.2 1.5.2 1.4.9-.2.8 1.3 1 5.4.6 4.1-.5 5.4-.3 4.9.5-.5.9 2.4 1.2 10.8 1.2 6.4 0 11.6.3 11.6.7 0 1.3 25.2 1.5 28.2.2 2-.8 3.6-.8 5.8-.1 2.7 1 3.2.8 4.6-1.3.9-1.4 2.1-2.5 2.8-2.4.7 0 .6.2-.2.6-.6.2-1 .9-.6 1.4.8 1.3 2.4 1.1 2.4-.4 0-.6.7-2.1 1.5-3.1 1.7-2.2 8.3-2.4 13.2-.5 1.5.6 4.4 1.3 6.3 1.4 4.6.4 6.4.8 7.1 1.9.7.9 15.6.9 23.3.1 2.3-.3 5 .2 6.8 1.1 2.1 1.1 3.3 1.2 4.2.5.7-.6 1.6-.8 1.9-.5.4.4 2.3.8 4.4.9 5.5.3 16.9 3.8 19.1 5.8 1 .9 2.4 1.7 3.1 1.7 3.3 0 12.3 8.3 11.4 10.5-.4 1.1.1 1.4 1.7 1.3 1.3-.2 2.5.3 2.8 1.1.3.9 0 1.1-.9.6-.8-.5-.3.3 1 1.8 1.2 1.4 2 3 1.7 3.5-.3.5.4 2.3 1.7 3.8l2.2 2.9-2.8-1.8c-2.2-1.4-2.7-1.5-2.7-.3 0 .8.6 1.7 1.3 1.9.9.4.9.7-.1 1.5-.8.6-1.1 2.2-.8 4.8.2 2.1.5 4.2.5 4.6.1.5.7.8 1.5.8 2.3 0 3.1 2.2 1.2 3.6-1.6 1.1-1.6 1.4.5 3.3 1.2 1.1 2.6 1.8 3.1 1.5.4-.3.8.2.8 1 0 .9.7 1.6 1.5 1.6s1.5.4 1.5.8c0 .5 1 1.4 2.3 2 1.2.6 1.6 1.1.8 1.1-1 .1-.7.7.7 2 1.2 1 1.9 2.1 1.5 2.5-.3.3.5.6 1.8.7 1.3 0 1.9.3 1.2.6-.8.3-.5 1.2 1.1 2.6 1.3 1.2 2.1 2.8 1.9 3.4-.3.7.2 1.6 1.1 1.9.9.3 1.6 1 1.6 1.5s1.1 2.7 2.5 5c1.4 2.2 2.5 4.5 2.3 5.2-.1.7.4 2.3 1.2 3.7.7 1.4 1.5 4.6 1.7 7.1.1 2.6.8 6 1.4 7.5.7 1.6 1.1 4.6 1 6.6-.2 2.3.2 3.8.9 3.8s.9 1.6.4 5.2c-.5 3.8-.4 4.9.5 4.4.8-.5 1 .4.6 3.6-.3 2.9-.2 3.8.4 2.8.6-.8 1.3-1.1 1.8-.7.4.4.2 1.7-.5 2.7-1.1 1.8-.9 2 1.3 2 1.4 0 2.5.4 2.5 1 0 .5.8.7 1.8.3 1.1-.4.9.1-.8 1.6-2 1.8-2.2 2.4-1 3.1.8.6 2 .9 2.5.9.6 0 .4-.3-.2-.6-.7-.2-1.3-.9-1.3-1.5s.8-.7 1.7-.4c1 .4 1.4.4 1 0-.8-.9 1.2-3.6 2.3-2.9.3.2.7-1.4.8-3.7.1-2.2.7-4.7 1.3-5.4.5-.7.9-1.8.8-2.6-.4-2.2 4.1-15.9 5.1-15.3.4.3 1.1-1.3 1.5-3.5.4-2.6 1.2-4 2.2-4 .9 0 1.3-.6.9-1.5-.8-2.2.4-1.8 2.8.8 1.2 1.2 2 3 1.8 4-.2.9.1 1.7.7 1.7 1.8 0 1.2-3.5-.9-6-2-2.3-2.4-3-1.5-3 1.4 0 5.5 5.8 5.5 7.8 0 1.5.5 2.2 1.3 2 2.1-.8 6.6-8.2 6.7-11 0-2.9-1.8-4.7-2.9-2.9-.5.7-1.2.2-1.9-1.4-1.5-3.2-1.5-3.5 0-3.5.6 0 .8.3.5.7-.4.3.5 1.2 1.9 2 3.4 1.7 3.4 1.7 3.4-.7 0-1.1.6-2 1.3-2 2.6.1 5.8 3.8 8.2 9.5 1.9 4.8 2.9 6 4.5 5.8 1.4-.2 2 .3 2.1 2 .1 1.2.5-.1.9-2.8 2.1-12.9.5-19.6-5.3-22-4-1.7-5.4-1.1-9.9 3.9-2 2.3-4 3.8-4.4 3.3-.4-.4-.2-.7.5-.7.8 0 .7-.5-.3-1.6-.9-.8-1.6-1.9-1.6-2.3 0-1.2 4.8-6.1 6-6.1.5 0 1-1.1 1-2.5 0-2.2.4-2.5 3.8-2.5h3.7l-.8-6.8c-.4-3.7-1-12.1-1.2-18.7-.3-7.4-1-13.3-2-15.7-.8-2.1-1.4-5.5-1.3-7.6 0-2.1-.6-4.9-1.4-6.2-1.6-2.6-3.3-9.5-2.9-11.8.1-.7-.3-3-1-5s-1.3-7.1-1.4-11.3c-.2-4.8-.9-8.8-2-11-1-2-1.2-2.9-.4-2.2 1.7 1.7 2.6 1.6 3.2-.1.4-1.1.1-1.3-1.1-.9-.9.3-1.4.2-.9-.2.4-.5 0-1.7-1-2.7-.9-1-1.1-1.8-.5-1.8.6 0 .9-.7.5-1.7-.5-1.3-.2-1.5 1.5-1.1 1.2.3 2.1.3 2-.1-.2-1.9.4-3.1 1.6-3.1 1.8 0 10.4-4.9 11.3-6.4 1.4-2.3 5.7-4 10.3-4.1h4.5v-10c-.1-5.5-.6-17-1.3-25.5-.6-8.5-1-22.8-.8-31.8.1-8.9-.1-16.2-.6-16.2-.4 0-.8-1.8-.8-4V0h-29.5l-.2 5.5c-.1 3-.7 6.3-1.3 7.4-.6 1.2-1 6-.8 10.8.1 4.9-.3 9.7-.9 10.8-1.1 2-4.5 18.1-4.7 22.1-.1 1.1-.7 2.9-1.5 3.8-1.1 1.3-1.1 2-.3 2.8.7.7 1.2 2.9 1.2 5 0 2.7.4 3.8 1.5 3.8.8 0 1.5-.7 1.5-1.6 0-.8.4-1.2 1-.9 1.2.7.1 6.7-1.6 8-1.6 1.3-1.3 5.3.5 6.5 1.2.7 1.2 1.1.2 2.4-1.1 1.4-1.1 1.6.4 1.6 1.1 0 1.5.5 1.1 1.5-.4 1.1.8 2.1 4.4 3.7 4.3 1.9 4.9 2.5 4.3 4.2-.4 1.2-.7 3.1-.6 4.3 0 1.3-.3 2.3-.8 2.3s-.9-1.2-.9-2.6c0-1.9-.4-2.5-1.4-2.1-.9.4-1.7-.2-2.1-1.4-.4-1.1-1.8-2.4-3.1-2.9s-2.9-2.1-3.4-3.5-1.4-2.5-1.9-2.5-1.7-2-2.7-4.5c-.9-2.5-1.9-4.3-2.2-4-.7.7-3.3-4.6-3.7-7.7-.2-1.4-1.3-3.6-2.5-4.8-1.2-1.2-1.9-2.8-1.6-3.5.3-.8-.4-1.7-1.7-2.1-1.2-.4-3.8-1.7-5.8-3-2-1.2-4.2-2.2-5-2.1-2.9.2-8.9-1.6-10.1-3.1-1.1-1.3-1-1.4 1.5-.8 1.7.4 2.6.3 2.3-.2-.3-.5-1.9-1.2-3.4-1.5-1.6-.3-4.3-1.7-6-3.1-1.6-1.5-3.6-2.6-4.3-2.6-.8 0-2.1-.5-2.9-1.1-1.2-.8-1.1-.9.6-.4 1.2.3 3.2.1 4.5-.4 2.1-.8 2-.9-1.3-.8-2.3.1-4.5-.6-5.7-1.7-1.7-1.5-3.1-1.8-7-1.3-4 .5-5.5.2-7.3-1.3-2.2-1.9-2.2-1.9-.3-2 1.8 0 2-.5 1.7-3.4-.3-2.8 0-3.5 1.8-4.1 1.2-.4 2.8-.1 3.7.7 1.4 1.1 1.5 1.1.5-.7-2.2-4.2-27.2-7.7-36.7-5.2-1.6.4-2.5.4-2 0 1.3-1 1.3-2.3-.2-4.8-.7-1.1-1.3-1.4-1.3-.7 0 2.6-2.8 2.2-8.4-1.2-5.2-3.1-8.6-3.9-11.1-2.4-1 .5-13.6.1-19-.6-1.6-.3-3.6-.5-4.3-.5-.7-.1-1-.6-.7-1.1.3-.6 0-1-.7-1-.9 0-.9-.3.2-1 1.3-.8 1.2-1-.2-1-1 0-1.7-.3-1.7-.8.1-.4.1-2.6 0-5L274 0H158.2l.5 12.2zM220.5 24c-2.7 1.2-4.3 1.2-2.5 0 .8-.5 2.2-.9 3-.9 1 0 .8.3-.5.9zm25.8-.3c-.7.2-2.1.2-3 0-1-.3-.4-.5 1.2-.5 1.7 0 2.4.2 1.8.5zm6.1.5c-.5.8-.2.9.9.5.9-.3 1.9-.2 2.2.3.4.6-.2 1-1.2 1.1-1.6 0-1.6.1.2.9 1.4.6.6.8-3.1.8-2.9 0-5.6.2-6.1.5s-1 .1-1-.6 1.3-1.2 3.4-1.1c1.8.1 3.1-.2 2.8-.7-.3-.4-1.3-.5-2.2-.2-1.5.6-1.6.5-.3-1 1.7-1.9 5.5-2.4 4.4-.5zM208 25.4c0 .2-.7.6-1.5 1-.8.3-1.5.1-1.5-.4 0-.6.7-1 1.5-1s1.5.2 1.5.4zm2 2.6c0 .5-.7.7-1.5.4-.8-.4-1.5-.8-1.5-1 0-.2.7-.4 1.5-.4s1.5.4 1.5 1zm31 0c0 .9-5.8 1.1-6.3.3-.3-.5 1-.8 2.9-.9 1.9 0 3.4.2 3.4.6zm55.5 1.2c.4.3.2.9-.3 1.2-.5.3-1.5-.1-2.1-.8-1-1.1-.9-1.4.3-1.2.9.1 1.8.5 2.1.8zm-64 3.8c-.3.5-1.2 1-1.8 1-.7 0-.6-.4.3-1 1.9-1.2 2.3-1.2 1.5 0zm12.5 8.4c0 .2-.7.7-1.6 1-.8.3-1.2.2-.9-.4.6-1 2.5-1.4 2.5-.6zM171.2 54c-1.3 1.1-3 1.6-3.8 1.3-1.2-.4-1.1-.8.6-2 1.1-.8 2.5-1.1 3-.8.6.3 1 .1 1-.6s.3-.9.8-.5c.4.4-.3 1.6-1.6 2.6zm16.5-2.3c-.9.2-1.5.9-1.2 1.4.3.5-.1.6-1 .2-1.3-.5-1.4-.7-.3-1.4.7-.5 2-.8 2.8-.8 1.1.1 1 .3-.3.6zM161.5 53c-.3.5-.1 1 .4 1 .6 0 .2.9-.9 2s-2.5 2-3 2c-.6 0-1.5 1.1-2 2.5-.7 1.8-1.4 2.3-2.6 1.8-1.4-.5-1.6-.3-1.1 1.1.4 1 .3 1.5-.3 1.1-.6-.3-1 0-1 .8s-.6 2-1.3 2.6c-2.1 1.7-1.8-1.9.5-5.1 1.2-1.8 2.4-2.5 3.5-2.1 1.1.4 1.4.3.9-.5-.4-.7.2-2.4 1.3-3.8 1.2-1.5 2.1-2.4 2.1-2 0 .4.7 0 1.6-.8 1.7-1.8 2.8-2.1 1.9-.6zm-15.4 4.3c-.6.8-.9 1.6-.6 1.9.3.3-.3 1.2-1.4 2.2-1.7 1.5-1.9 1.5-2.5.1-.4-1.1-.2-1.4.6-.9.8.5.9.1.4-1.2-.4-1-.4-1.5 0-1.2.3.4 1.3.1 2.1-.7 1.8-1.9 2.9-2 1.4-.2zm58.9 6.1c0 .2-.8 1-1.7 1.7-1.6 1.3-1.7 1.2-.4-.4 1.3-1.6 2.1-2.1 2.1-1.3zm-60 6.5c-.4 1.6-.5 3.3-.2 3.7.4.4 0 .5-.8.2-1.6-.5-1.5-3.5.2-5.6 1.6-1.8 1.7-1.5.8 1.7zm54.8-.4c-.6 1.4-1.5 2.5-2 2.5s-.6.5-.2 1.2c.4.7.3.8-.5.4-1.2-.8-.8-1.7 1.8-4.8 2.1-2.4 2.3-2.3.9.7zM129 68.4c0 .3-.4.8-1 1.1-.5.3-1 .1-1-.4 0-.6.5-1.1 1-1.1.6 0 1 .2 1 .4zm68 0c0 .2-.7.7-1.6 1-.8.3-1.2.2-.9-.4.6-1 2.5-1.4 2.5-.6zm-66.7 4.8c-.4.7-.8 1.8-.9 2.5-.1.6-.7 1.9-1.4 3-1 1.5-1 1.3-.5-1.2.6-2.8 2.2-5.5 3.2-5.5.2 0 .1.6-.4 1.2zm126.7.2c0 .2-.9.6-2 .9-1.1.3-1.8.1-1.4-.4.5-.9 3.4-1.3 3.4-.5zm-117.6 3.5c.3.5-.1 1.1-.9 1.4-.9.4-1.2.1-.8-.9.6-1.6 1-1.7 1.7-.5zM128 118.4c0 .2-.7.7-1.6 1-.8.3-1.2.2-.9-.4.6-1 2.5-1.4 2.5-.6zm22.2 6.8c-.7.7-1.2.8-1.2.2 0-1.4 1.2-2.6 1.9-1.9.2.3-.1 1.1-.7 1.7zm-56.6 62c2.1 1.7 3 3.3 3.1 5.7.1 1.8 1 4.2 1.9 5.2 2 2.2 2.2 2-3.7 4.7-9.9 4.7-17.1 1.5-17.1-7.6 0-3.1 7.3-10.2 10.4-10.2 1.3 0 3.7 1 5.4 2.2zm331 47c1 3.2-.3 3.2-1.9-.1-1.2-2.3-1.2-2.8-.1-2.4.7.3 1.6 1.4 2 2.5zM401 270.5c-.7.9-1.5 1.3-1.7 1.1-.7-.7.7-2.6 1.9-2.6.6 0 .6.6-.2 1.5z"/><path d="M168.5 54c-.3.6.1.7.9.4 1.8-.7 2.1-1.4.7-1.4-.6 0-1.3.4-1.6 1zM158.6 55.5c-1.1.8-1.5 1.5-.9 1.5s1.6-.7 2.3-1.5c1.6-1.9 1.1-1.9-1.4 0zM156.6 41.2c.3.5 1 .6 1.5.3 1.3-.9 1.1-1.2-.6-1.2-.8 0-1.2.4-.9.9zM139.6 51.2c-2.1 4-2 4.5.2 2.5 1-1 2.2-1.4 2.5-1 1.3 1.2.7-1.3-.5-2.6-1-1.1-1-1.3 0-.7.6.4 1.2.2 1.2-.3 0-2.2-1.9-1-3.4 2.1zM154.5 49c-.3.5-.3 1 .2 1 .4 0 .1.4-.7 1-.8.5-1.2 1.1-.9 1.5.3.3 1.4-.3 2.3-1.4 1-1.1 1.3-2.1.7-2.5-.5-.4-1.2-.2-1.6.4zM150.5 53.1c-.4.6-.5 1.2-.2 1.5.2.3.7-.2 1-1.1.7-1.7.1-2-.8-.4zM103 80.6c0 1.1-.4 2.4-1 3-.5.5-.6 2.2-.1 3.9.7 2.8.8 2.6 1.4-2.4.4-3 .4-5.7.2-6-.3-.2-.5.5-.5 1.5zM107.2 90.6c-.7.8-.8 1.4-.3 1.4 1 0 2.5-1.9 2-2.5-.2-.1-1 .3-1.7 1.1zM93.6 100.6c-.4.9-.4 1.9-.1 2.2.2.3.7-.3 1.1-1.2.4-.9.4-1.9.1-2.2-.2-.3-.7.3-1.1 1.2zM509.7 100.7c-.4.3-.7 1.7-.7 3s-.6 2.3-1.4 2.3c-.8 0-1.6.7-2 1.5-.6 1.8.2 4.5 1.5 4.5.4 0 .5.7.2 1.7-.4 1.1-.3 1.4.6.9.9-.6 1.2.8 1.1 6-.1 3.8.1 8.8.5 11.2 1.6 9.2 2.5 4.5 2.5-13.2 0-17-.4-19.9-2.3-17.9zM88.1 111.6c0 1.1.3 1.4.6.6.3-.7.2-1.6-.1-1.9-.3-.4-.6.2-.5 1.3zM470 133.6c-1.4.9-3.3 2.6-4.2 3.8-1.6 2.3-1.6 2.4 2.2 5.2 2.5 1.9 4 3.7 4 5.1 0 1.3.6 2.3 1.4 2.3 2.2 0 2.7 4.1 1.2 11.1-1.1 5.1-1.1 6.7-.1 7.9 2.4 2.9 8.5 15.2 9.1 18.4 1.1 6.2-2.8 11.7-12.6 18-3.6 2.2-5.1 6.5-3.2 8.9 2 2.4 3.4 24.8 2.7 42.2-.7 17-1.7 21.7-5.1 24.6-.8.6-1.4 1.7-1.4 2.3 0 1.4-8.5 4.7-10.3 4.1-.7-.3-2.7 2.7-5.2 7.7-2.1 4.6-4.2 8.5-4.5 8.8-.4.3-2.3 3-4.2 6.1-4.4 7-8.5 10-16.2 11.9l-5.9 1.6.2 27.3.2 27.3 4.8 12.7c7.1 18.6 16.8 36.8 21 39.1 3.9 2.1 5.1 4.1 5.1 8.9 0 5.2.5 6.2 2.6 5.4 1.8-.7 1.7-4.3-.1-6.7-4.5-5.9.7-4.5 7.4 1.9 8.1 7.8 11.2 10.4 14.8 12.1 1.8.9 4.2 2.6 5.5 3.8 1.3 1.2 4 3 6.1 4.1 2.6 1.4 4.4 3.3 5.6 6.1 1.9 4.3 4.6 6 15.9 10.2l5.2 2V145l-2.7-.6c-1.4-.4-3.3-.2-4.2.3-1.8 1.1-11.1.9-14.8-.2-1.4-.5-2.3-.3-2.3.4s-.8.8-2.6.1c-1.4-.6-3.8-1-5.4-1-3 0-3.3-.7-4.2-9-.4-3-2.4-3.5-5.8-1.4zM262 229.1c-2.5.4-6.6 1.9-9.2 3.2-2.5 1.4-4.9 2.2-5.3 1.9-.4-.4-.5.2-.3 1.3.1 1.1-.1 2-.7 2.1-3.2.3-4.5 1.8-4.5 5 0 1.9-.5 3.4-1.1 3.4-.6 0-.8-1.1-.4-2.8.4-2.1 0-3.3-1.6-4.8l-2.2-1.9 1.6 3.1c1 2 1.2 3.5.6 4.5-1.5 2.4-1 3.7 1.3 3.1 1.4-.3 1.9-.1 1.4.6-.3.6-.2 1.3.4 1.7 1.8 1.1 0 2.6-2.3 2-2-.5-2-.5-.4.5 2.7 1.7 7.4.3 8.1-2.4.5-1.9 1.2-2.2 3.8-2.1 1.8.1 3.6-.2 3.9-.7.4-.6 3-.7 6.4-.3l5.7.8-3.6 1.6c-1.9.9-4.9 3.5-6.6 5.8-2.4 3.4-3.6 4.3-6 4.3-1.7 0-3 .5-3 1.2s-.5.5-1.1-.5c-1.8-3-3.6-1.9-4.2 2.5-.4 3.1-.2 4.5 1 5.3 2.1 1.5 8.9 1.8 11.4.5 1.4-.8 1.9-.7 2.1.2 0 .7.2 1.7.3 2.3.2.5.3 1.5.4 2.2.1 1.2 6.1 3.7 6.1 2.4 0-1.5-2.3-2.9-3.9-2.4-1.1.4-1 .1.4-1 2.3-1.9 4.5-2.2 4.5-.7 0 .6 1 1.5 2.3 1.9l2.2.9-2.5 1c-2.3 1-2.2 1 1.3 1 4.3-.1 4.7-.9 1.2-3.2-1.8-1.2-2.4-2.4-2.2-4.6.2-3.5 6.1-11 8.6-11 .9 0 2.1-.4 2.7-.9.5-.5 1.9-1.2 3-1.5 2.1-.6 2.2-.4 1.9 4.3-.3 3.4.1 5.3 1.1 6.2 1.1.9 1.4.9 1.4-.1s.3-1 1.5 0c1.3 1.1 1.4 1 .8-.6-.6-1.6-.5-1.7.9-.4 2 1.8 1.4 3-1.5 3-2.2.1-2.2.1.2 2.1 1.3 1.1 3 1.8 3.8 1.5.7-.3 1.3-.1 1.3.4 0 1.5 3.7 1.2 7.1-.6 3.5-1.8 7.1-8.8 6.2-12.2l-.5-2.2 4.1 1.8c4.6 2.1 6.1 3.2 4.2 3.2-.7 0-.9.5-.6 1 .5.8 1.1.8 2 0 .9-.8 1.5-.8 2 0 .3.5 1.6 1 2.8 1 2.1.1 2.1.1-.3 1.5-3.4 1.9-.7 1.9 3 0 1.8-.9 4.1-1.3 5.7-1 2.7.6 2.7.6.9-.9-1.1-.9-2.3-1.6-2.8-1.6-.4 0-.8-.5-.8-1 0-.6.7-1 1.5-1 5 0-3.7-7.6-11.7-10.4-6.2-2-15.9-3.6-23-3.6-3.2 0-5.8-.5-5.8-1 0-.6-.7-1-1.7-1-.9 0-1.3-.3-.9-.8.4-.4 1.1-.7 1.4-.7.4 0 2.2-1 3.9-2.3 1.8-1.3 3.7-2 4.3-1.7.5.3 1 .3 1-.2 0-.4 1.4-.9 3.1-.9 1.7-.1 3.4-.6 3.8-1.3 1.8-2.8 13.1-4.2 13.1-1.6 0 1.8 4.1 2.9 7.5 2.1 2.9-.7 2.4-3.3-.8-3.8-1.2-.2-2.1-.9-2-1.5.1-.6-.7-1.3-1.7-1.6-1.1-.3-1.8-.1-1.5.3.9 1.5-1.5 2.2-3 1-1.1-.9-1.5-.9-1.5-.1 0 .6-1 1.1-2.2 1-2.2 0-2.2-.1-.3-.9 1.5-.6.9-.8-2.5-.9-2.5 0-6.2-.3-8.2-.5-2.4-.3-4.1.1-4.8.9-1.2 1.4-6.2 1.4-12 .2-4.5-1-15.4-1.3-20-.6zm41.7 2.5c-.3.3-1.2.4-1.9.1-.8-.3-.5-.6.6-.6 1.1-.1 1.7.2 1.3.5zM281 243.5c0 .8-.7 1.5-1.5 1.5-1.3 0-1.4-.3-.3-1.5 1.6-1.8 1.8-1.8 1.8 0zm1.7.7c-.3.8-.6.5-.6-.6-.1-1.1.2-1.7.5-1.3.3.3.4 1.2.1 1.9zm5.3 4.3c0 .8-.7 1.5-1.5 1.5s-1.5-.7-1.5-1.5.7-1.5 1.5-1.5 1.5.7 1.5 1.5zm19.8.1c2.5.7 3 3.1.7 3.1-.8 0-1.5-.3-1.5-.7 0-.3-1.7-.7-3.7-.8-5.9-.2-7.3-.5-7.3-1.4 0-.5-1-.4-2.1.3-1.6.8-2.3.8-2.9-.1-.6-.9-.9-.9-1.3.1-.4.9-.6.7-.6-.5-.1-1.8.5-1.8 8.2-1.2 4.5.3 9.2.9 10.5 1.2zm-26.8.9c0 .8-.7 1.5-1.5 1.5s-1.5.5-1.5 1.1c0 .6-.6.9-1.4.6-.7-.3-1.9 0-2.5.6-.6.6-1.1.8-1.1.3 0-1.2 3.1-4 4.7-4.2.8-.2 1.7-.5 2.1-.8.9-.9 1.2-.7 1.2.9zm33.5 2.5c.3.5-.3 1-1.4 1-1.2 0-2.1-.5-2.1-1 0-.6.6-1 1.4-1 .8 0 1.8.4 2.1 1zm-22.1 4.7c.4.9.3 2-.2 2.5-.6.6-1.1-.1-1.4-1.6-.6-2.9.6-3.5 1.6-.9zm32.1 1.3c.3.5-.1 1-.9 1-.9 0-1.6-.5-1.6-1 0-.6.4-1 .9-1 .6 0 1.3.4 1.6 1zm-39 1.9c.3.5.1 1.2-.5 1.6-.5.3-1-.1-1-.9 0-1.8.6-2.1 1.5-.7z"/><path d="M321 229.5c-1.1 1.3-.8 1.5 1.9 1.5 1.8 0 3 .4 2.7.8-.3.5 1.2.9 3.4 1 2.1.1 4.2-.3 4.5-.8.4-.6-.6-.7-2.5-.4-1.9.4-3 .2-3-.4 0-.6.8-.9 1.8-.6 1.4.5 1.5.4.2-.5-.8-.5-2.5-.7-3.8-.4-1.4.3-2.7.1-3.1-.6-.6-.9-1.1-.8-2.1.4zM252 231c-.8.5-1 1-.5 1 .6 0 1.7-.5 2.5-1s1.1-1 .5-1c-.5 0-1.7.5-2.5 1zM167.3 238.7c2.2 2.3 2.9 2.5 3.9 1.4 1.1-1.2 1-1.3-.5-.8-1.1.4-2.2 0-2.9-1.3-.7-1.1-1.7-2-2.3-2-.5 0 .3 1.2 1.8 2.7zM325.5 237c-1.9.8-1.9.9.3.9 1.2.1 2.2-.4 2.2-.9 0-.6-.1-1-.2-.9-.2 0-1.2.4-2.3.9zM151 238.4c0 .2.9.6 2 .9 1.1.3 1.8.1 1.4-.4-.5-.9-3.4-1.3-3.4-.5z"/><path d="M161.6 239.5c.4.9 0 1.5-1 1.5-.9 0-1.6-.5-1.6-1 0-.6-.7-1-1.6-1-1 0-1.4.6-1.1 1.4.4 1.1.1 1.3-1 .9s-1.4-.2-.9.5c.5.9 0 .9-1.9.2-3.6-1.4-4-1.3-2.4.7.8.9.9 1.4.2 1-1.8-1.1-4.5.4-3.9 2.2.5 1.4.5 1.4-.6.1-.7-.8-2.4-1.7-3.7-1.8-2.1-.3-2.2-.2-1 1 .8.8 2.1 1.7 2.9 2.1 1 .4.8.6-.7.6-1.2.1-2.5.6-2.9 1.3-.5.8 0 .9 1.7.5 2.2-.5 2.2-.5.7.7-1.9 1.4-2.5 3.2-.8 2.1.5-.3 2.1.1 3.4 1 2 1.4 4.1 1.5 12.3 1 5.4-.4 11.3-.8 13.1-.9 1.9 0 3.2-.6 3.2-1.4 0-.7.4-1.1.9-.8.5.3 1.1-.1 1.5-.9.3-.8.1-1.7-.5-2-.5-.4-.7-1.1-.4-1.6.4-.5.1-.9-.5-.9s-.8-.5-.5-1c.4-.6-.5-1-2-1s-2.4-.4-2-1c.3-.6 0-1-.8-1s-2.2-.9-3.2-2c-2.2-2.4-5.7-2.8-4.9-.5zm-8.6 5.9c0 .2-.9.6-2 .9-1.1.3-1.8.1-1.4-.4.5-.9 3.4-1.3 3.4-.5zm-.7 8.3c-.7.2-2.1.2-3 0-1-.3-.4-.5 1.2-.5 1.7 0 2.4.2 1.8.5zM175.4 240.2c-.5.7-.3.8.6.3.8-.5 1.1-.3.8.6-.3.8-1.1 1.3-1.7 1.1-.7-.1-.6.6.3 2 .8 1.3 1.6 2.7 1.8 3.3.2.5.9.9 1.5.9.7-.1 1 .2.7.7-.3.5 0 .9.5.9.6 0 1.1-.9 1.1-2 0-1.3.5-1.8 1.5-1.4.8.4 1.5 1 1.5 1.6 0 .5-.5.6-1.2.2-.7-.4-.8-.3-.4.4s.2 1.2-.3 1.2c-1.6 0-1.3 1.7.3 2.3 1 .4 1.3.1.9-.9-.6-1.6 1.2-2 2.2-.4.4.6 1.1.8 1.6.4.5-.3.7-.9.4-1.4-.3-.4.2-1 1-1.4.8-.3 1.5-1.1 1.5-1.8 0-.9-.3-.9-1.1.2-.9 1.2-1.2 1.3-1.6.1-.5-1.1-.7-1.1-1.4 0s-.9 1-.9-.4c0-1-.4-1.5-1-1.2-.5.3-1-.1-1-.9s-1-2-2.1-2.7c-1.2-.6-1.9-.7-1.6-.2.3.4-.1 1.4-.9 2.1-1.1 1-1.3.7-.8-1.8.7-3-.8-4.2-2.2-1.8zm5.6 4.8c-.8.5-1.7.7-1.9.4-.3-.3.1-.9.9-1.4.8-.5 1.7-.7 1.9-.4.3.3-.1.9-.9 1.4zM235.8 241.7c.5 2.1.7 2.3 1 .9.2-1 0-2.2-.6-2.8-.6-.6-.7 0-.4 1.9z"/><path d="M144 242c-.8.5-1 1-.5 1 .6 0 1.7-.5 2.5-1s1.1-1 .5-1c-.5 0-1.7.5-2.5 1zM177 250.9c0 .5.7 1.1 1.5 1.5.8.3 1.5.1 1.5-.3 0-.5-.7-1.1-1.5-1.5-.8-.3-1.5-.1-1.5.3zM419.5 251c-.4.7-1.6.9-2.7.7-1.8-.5-2-.2-1.4 2.3.5 2.9-.8 5.1-1.7 2.8-.3-.8-.6-.6-.6.4-.1 1 .4 1.8 1 1.8s.9 1.4.7 3.2c-.2 2.7.2 3.5 2.3 4.5 2.2 1 3.5 1 7.3-.1 3.9-1.2 5.1-1.2 7.2-.1 1.4.7 3.4 1 4.5.8 1.6-.5 1.8-1.1 1.3-4.2-1.3-7.3-3-9.9-7.1-11-8-2-10.1-2.2-10.8-1.1zM138.1 252.6c0 1.1.3 1.4.6.6.3-.7.2-1.6-.1-1.9-.3-.4-.6.2-.5 1.3zM132.8 252.7c.6.2 1.8.2 2.5 0 .6-.3.1-.5-1.3-.5-1.4 0-1.9.2-1.2.5zM168.7 254.8c1.7 1.1.3 2.8-3.2 3.7-3.6 1-3.3.9-7 2.3-5.9 2.3-8 3.8-8.3 6-.2 1.2-1 2.2-1.8 2.2s-1.4.6-1.4 1.3c0 .7-.7 2.2-1.5 3.3-.8 1-1.5 1.4-1.4.9.4-3.3-.5-3.3-1.1 0-.4 2.2-.7 4.1-.5 4.3.2.2 1.5-.4 2.9-1.3s2.8-1.6 3.3-1.5c.4.1 1-.5 1.3-1.4.7-2 9.8-7.8 11-7.1.5.3.7 2.5.4 4.9-.6 4.1-.4 4.6 3.6 8.6 3.8 3.8 4.5 4.1 7.8 3.5 6.8-1.2 11.3-5.7 11.4-11.4.1-1.7.2-3.1.3-3.1 1.6 0 6.4 2.4 6 3-.3.4.2 1 1 1.4.8.3 1.5.1 1.5-.4 0-.6.4-1 .9-1s.2 1.5-.7 3.4c-1.1 2.4-2.5 3.6-5.1 4.4-3.5 1.1-3.4 1.1 1.4.6 2.8-.3 6.1-1.1 7.4-1.7 2.7-1.3 3.6-5.3 1.4-6.1-2-.8-1.5-2.9.6-2.3 1.5.3 1.7 0 1.3-1.6-.4-1.4-.2-1.8.7-1.3.9.6.9.2-.1-1.3-.7-1.2-1.9-1.9-2.5-1.6-.7.2-1.3-.2-1.3-1 0-1.3-2.6-2.1-5.4-1.6-.5.1-.6-.5-.3-1.2.4-1 0-1.3-1.3-1-1 .3-2.1 0-2.4-.6-.4-.6-1.6-1.1-2.7-1.1-1.2 0-1.7-.4-1.3-1.1.5-.8.1-.8-1.4 0-1.4.8-2.3.8-2.7.1-.4-.6-1.6-.8-2.8-.5-1.7.5-1.9.4-.7-.4 1.3-.9 1.3-1.1-.2-1.1-1 0-1.8.4-1.8 1 0 .5-.9 1-2 1-2.5 0-2.7-2-.2-2.1 1.4 0 1.4-.2-.3-.9-2.5-1.1-4.4-1.2-2.8-.2zm1.3 6c0 .5-.7.9-1.5.9s-1.2-.4-.9-.9c.3-.4.9-.8 1.5-.8.5 0 .9.4.9.8zm5.7.8c-.3.3-1.2.4-1.9.1-.8-.3-.5-.6.6-.6 1.1-.1 1.7.2 1.3.5zm4.8 1.4c.3.5.2 1-.4 1-.5 0-1.3-.5-1.6-1-.3-.6-.2-1 .4-1 .5 0 1.3.4 1.6 1zm-26.5 3.5c0 .2-.7.5-1.5.9-.9.3-1.5 0-1.5-.9s.6-1.2 1.5-.9c.8.4 1.5.7 1.5.9zm19.6 4c.1.8-.3 1.5-1 1.5-2 0-2.7-1.2-1.4-2.7 1.2-1.5 2.1-1 2.4 1.2zm-6.6 8.7c0-.7.5-1.2 1-1.2.6 0 .5.8-.2 1.9-1.2 1.9-1.2 1.9-3-.1-1-1.2-1.8-2.6-1.8-3.1 0-.6.9 0 2 1.3s2 1.8 2 1.2zm29.5-1.3c-.3.6-1.1 1.1-1.7 1.1-.6 0-.6-.6.2-1.5 1.4-1.7 2.6-1.3 1.5.4z"/><path d="M145.9 268.1l-2.4 2 2.8-1.7c1.5-.9 2.7-1.8 2.7-2 0-.8-.8-.4-3.1 1.7zM.2 283.5c.3 3.5 1 6.1 1.9 6.5.8.5 2.5 1.8 3.8 2.9 1.3 1.2 3.6 2.1 5 2.2 1.4 0 5.5.2 9.1.4 6 .3 6.6.1 9.2-2.7 3.5-3.8 3.5-6.8.1-10.2-3.4-3.4-6.1-4-12.3-2.7-4.8 1-10.2.5-15.5-1.5-1.6-.7-1.7-.2-1.3 5.1zM178.3 287.7c-1.5.5-1.7 2.3-.4 2.3.5 0 1.1-.7 1.5-1.5.3-.8.4-1.5.3-1.4-.1 0-.8.3-1.4.6zM293 289c-1.1.7-.6 1 2 1s3.1-.3 2-1c-.8-.5-1.7-1-2-1-.3 0-1.2.5-2 1zM32.5 321.6c-3.8 1.9-7.9 3.4-9.1 3.4-3.3 0-8.9 4.2-9.2 7-.2 2 .5 2.9 3.2 4.4 3.2 1.7 4.9 1.8 19.3 1.1 14.5-.6 18.3-1.4 18.3-3.5 0-.4-2-3-4.5-5.8-2.5-2.7-4.5-5.6-4.5-6.4 0-2.1-2.1-3.8-4.4-3.7-1.2 0-5.2 1.6-9.1 3.5zM409 320.9c0 2.2 1.6 3.6 2.4 2.2.8-1.2-.3-4.1-1.5-4.1-.5 0-.9.9-.9 1.9zM397 332.6c0 .3.7 1.2 1.5 2 1.6 1.7 1.8 1.4.9-1-.6-1.5-2.4-2.3-2.4-1zM401 340.9c0 .6.5 1.3 1 1.6.6.3 1-.1 1-.9 0-.9-.4-1.6-1-1.6-.5 0-1 .4-1 .9zM402.6 351.8c-.4 1.3-1.3 1.9-2.1 1.5-.8-.3-1.2-.9-.9-1.4.3-.5-.2-.6-1-.3-1.2.5-1.3 1 0 3.9 1.6 3.8 1.8 5.7.5 3.6-.6-.9-1.1.2-1.5 3.3-.4 2.5-1.1 4.6-1.5 4.6-.5 0-.9 1.2-1 2.7-.1 1.6-.3 4.8-.4 7.3-.2 3.9-3.3 10.9-5.7 13-.3.3-2.8 3.9-5.5 8-2.8 4.1-5.3 7.6-5.7 7.8-.5.2-.8 1-.8 1.7s-2.2 3-4.9 5c-2.7 2.1-4.7 4.3-4.5 5 .3.6-.2 1.8-1.1 2.5-.8.7-1.5 1.9-1.5 2.6 0 .8-.7 1.4-1.6 1.4-1.1 0-1.4.5-1 1.6.4 1.2.2 1.5-.9 1-.9-.3-1.5 0-1.5 1 0 .8-1.7 3.2-3.9 5.4-2.1 2.1-4.1 4.6-4.4 5.5-.4.8-1.3 1.5-2.2 1.5-.8 0-1.5.6-1.5 1.2 0 2.1-4.4 5.6-8.1 6.5-1.8.5-3.4 1.6-3.5 2.4 0 .8-.2 1.9-.2 2.6-.2 1.4-6.5 3.6-10.9 3.7-2.8.1-3.3-.3-3.3-2.2 0-1.2-.5-2.2-1-2.2-.6 0-.9-1.5-.8-3.3.2-2.5-.1-3.2-1.4-3.1-1.9.2-2.4-1.1-.8-2.1.6-.3.5-1.5-.2-3.1-.8-1.8-1.4-2.1-2-1.2-.6 1-.8 1-.8 0 0-.6-.4-1.2-1-1.2-.5 0-1 .6-1 1.4 0 .8-.5 1.8-1.1 2.2-.7.4-.9 0-.5-1.4.9-2.7-.8-3.6-2.5-1.5-1 1.2-1 1.4-.1.9.7-.4 1.2-.2 1.2.8 0 2-2 3.2-3 1.6-.5-.8-.9-.7-1.4.6-.3.9-.4 1.9-.1 2.2.3.3.5-.1.5-.8 0-.9.4-.8 1.3.5 1.3 1.7 1.4 1.7 2-.5.3-1.2 1-1.9 1.6-1.6.6.4 1.9.2 3-.4 1.7-.9 2-.7 1.8 1.2-.1 2.6-3.6 8.2-5.3 8.5-.5.1-1.6-.8-2.4-2-1.2-2-1.1-2.1.2-.9 1.3 1 1.7 1 2.1-.2.4-1 0-1.4-1.5-1.3-1.2.1-2.3.9-2.6 1.9-.2 1-.9 1.8-1.4 1.8-.6 0-.8-.7-.4-1.5.3-.8.1-1.5-.4-1.5-1.3 0-1.3 1.6 0 4.1.8 1.5.7 2.3-.4 3.4s-1.6 1.2-1.9.2c-.4-.9-.6-.9-.6 0-.2 2.6-3.1 1.3-3.2-1.5-.2-2.3-.2-2.4-.6-.5-.3 1.4-1.2 2.3-2.3 2.3-1.4 0-1.7.6-1.3 2.3.4 1.9.3 2-.7.4-2.1-3.3-2.9-2-3.1 5.2-.1 1.6-.3 2-.9 1.1-.6-1-.9-.8-1.3.6-.3 1.3-.5.9-.6-1.1-.1-2.2-.4-2.6-1-1.5-.6.8-.8 2.8-.5 4.5.3 2.2.2 2.5-.4 1.1-.8-1.9-.9-1.9-1.4.2-1.1 3.9-3.7 2.6-4-2-.3-4-.4-4.1-2-2.4-1 1-1.8 2.5-1.8 3.4 0 1.5.2 1.5 1 .2.8-1.2 1-1.1 1 .7 0 1.2-.4 2.4-.9 2.8-1.1.6-2-1.7-2.6-6.4-.3-2.7-.1-3.1 1.5-2.6 1 .3 2.2 0 2.6-.6.5-.8.3-.9-.6-.4-1 .6-1.2.4-.7-.9.6-1.4.3-1.7-.9-1.2-.8.3-2 .6-2.5.6-1 0-.6 9.4.6 12.5.4 1.1-.4.3-1.9-1.8-1.8-2.6-2.4-4.5-2-6.1.3-1.3.1-2.7-.5-3.1-1.2-.7-.9 5.7.4 8.9.7 1.6.5 1.8-.9 1.3-1.4-.6-1.7-.3-1.2.8.3.9.2 1.4-.3 1-.5-.3-1.1-.2-1.4.2-.2.5-.2.1 0-.7.3-.8.6-2.9.9-4.5.4-2.4.3-2.6-.5-1-.5 1.1-1.9 2.9-3.2 4-1.2 1.1-1.9 1.5-1.6.8.4-.6.2-2.3-.5-3.8-.9-2.1-.9-2.8.1-3.5.8-.4 1.1-1.2.7-1.8-.3-.5.1-1.5.9-2.2 2.2-1.8 1.8-3.2-.5-2-1.7.9-2 .8-2.1-1.2-.1-2.1-.2-2.1-.6-.3-.3 1.1-1 2.3-1.7 2.7-.7.5-.8.8 0 .8.6 0 1.1 2 1.1 4.8-.1 2.6-.3 3.6-.5 2.2-.4-2.3-.5-2.4-1.2-.5-.8 2-.8 1.9-1.2-8.8 0-1.5-.5-2.7-1-2.7s-.7.4-.3.9c.3.5.1 1.2-.4 1.5-.5.3-1.5-1.4-2.2-3.9-.7-2.4-1.5-4.2-1.8-3.9-.9.8-.8 4.9.1 5.5 1.3.8 0 3.6-1.7 3.6-.8 0-1.5-.4-1.5-.9 0-.4.5-.8 1.1-.8.5 0 .7-.5.4-1-1-1.6-3.5.8-3.5 3.2 0 1 .4 1.7.9 1.3.6-.3 1.5.4 2.1 1.5 1.2 2.2 3.6 2.7 4.3.7.5-1.1 1.2 9.4.9 14.1 0 1.2.3 2 .8 1.7.6-.3.7.1.3 1.1-.5 1.3-1 .9-2.5-2-1-2-2.3-3.4-2.7-3.1-.5.3-1.2-.3-1.6-1.3-.5-1.4-.9-1.2-2 1.3l-1.3 3-.1-2.8c-.1-2.2-.6-2.7-2.7-2.7-1.6 0-2.3-.4-1.8-1.2.4-.7.3-.8-.4-.4s-1.2 2.1-1.2 3.7c0 3.7-2 2.9-2.1-.9 0-1.5-.3-2.1-.6-1.4-.2.6-.9 1-1.4.7-.5-.4-.6.1-.3.9.7 1.9-1.6 2.1-3.5.4-1.1-1.1-1.3-1-.8.5.4 1 .3 1.6-.2 1.2-.5-.3-1.1.1-1.4.7-.2.7-.8 1-1.2.5-.5-.4-.3-1.3.3-1.9.7-.7 1.1-2.1 1.1-3.3-.1-1.5-.2-1.6-.6-.4-.5 2.2-4.3 3.2-5 1.3-.3-.8-.9-1.1-1.4-.8-.5.3-.9-.4-.9-1.5 0-1.4-.5-1.9-1.5-1.5-.8.4-1.5.1-1.5-.5s-.9-2-2-3.1l-2-2-.1 2.2c0 1.3-.4 3.2-.9 4.3-.6 1.4-.7.6-.4-2.5.4-3.3.3-4.1-.5-3-1 1.3-1.1 1.3-1.2 0-.1-.8-.1-2.1 0-2.8.1-.6-.3-1.2-.9-1.2-.5 0-1 .5-1 1.1 0 .5-.5.7-1 .4-.6-.4-1-1.4-.9-2.3.3-2.7-1.1-5.1-2.7-4.5-1.6.6-2-2.2-.4-3.2.6-.3 1-1.2 1-1.8 0-.7-1.2.1-2.5 1.6-1.7 1.9-2.5 2.3-2.5 1.3 0-1-.6-1.3-1.5-1-.8.4-1.5.1-1.5-.5s-.7-1.1-1.5-1.1-1.5.5-1.5 1.1c0 .5-.4.7-1 .4-.5-.3-1-1.1-1-1.6 0-.6.5-.7 1.1-.3.8.5.9-.6.4-3.5-.6-3.4-.4-4 .8-3.5 1.1.4 1.5-.1 1.4-1.8-.1-1.5-.8-2.4-1.9-2.4-.9 0-1.5.3-1.2.7.2.4-.7 1.4-2.1 2.3-1.4.9-3.4 3.6-4.6 6-1.4 3.1-3.6 5.5-7.3 7.9C173 460 160 472.4 160 474c0 .6-.4 1-.8 1-.5 0-2.3 2-4 4.4-1.8 2.4-6.2 7.6-9.9 11.5-7.3 7.9-9.5 11.4-9.1 14.5.3 1.9 1 2.1 8.8 2.2 5.3 0 9.5-.5 11.3-1.3 3.3-1.6 4-1.3 5.7 2.7l1.2 3h35.7c24.4 0 36-.3 36.8-1.1.8-.8 1.3-.8 1.7 0 .4.6 1.8 1.1 3 1.1 2.8 0 5.1-4.6 5.1-10 0-3.4.1-3.5 4.5-3.8 11.5-.7 13.1-.5 15.8 2.1 3.6 3.5 7.5 4.8 15.1 5.4 5.4.3 6.3.2 5.8-1.1-.4-1-.1-1.6.7-1.6.8 0 1.7-.7 2-1.6.4-.9 1.3-1.3 2.4-1 1 .4 2.7-.1 3.8-.9 2.4-1.8 6-1.9 6.7-.1.3.8 1.5 1.2 3 .9 1.4-.3 3.4 0 4.5.6 1.5.8 2.1.8 2.4-.1.3-.8 1-.8 2.7.1 1.7.9 2.6 1 3.4.2 1.8-1.8 6.1-1.3 7.5.9 1 1.7 1.6 1.8 3.2 1 1.1-.6 2-1.9 2-2.9 0-1.7 5.2-5.1 7.7-5.1.5 0 2-1.1 3.3-2.5 1.3-1.4 3.1-2.5 3.9-2.5.9 0 2.5-.7 3.5-1.5s2.2-1.3 2.5-1.1c1.2.7 12.6-7 13.6-9.1.5-1.2 1.9-2.4 3.1-2.7 2.1-.6 5.4-5.5 5.4-8.1 0-.7 1.9-3 4.3-5.1 2.3-2.1 4.2-4.3 4.2-4.9 0-.5.4-1.6.9-2.4.5-.8 1-3 1.2-4.9.1-1.9.9-3.9 1.6-4.4 1-.7.8-.8-.4-.4-2.8.8-2.2-.1 3.7-6.7 3-3.4 5.5-6.8 5.5-7.6 0-.8 1.1-2.9 2.6-4.8 1.4-1.8 2.3-3.7 2-4.2-.3-.5.1-1.4.9-2.1.8-.7 1.5-2.4 1.5-3.7 0-2-.4-2.4-2-2-2.5.7-2.5-.4 0-3.3 1.6-1.8 1.7-2.5.8-3.2-1-.6-1-.8 0-.8.6 0 1.2-.6 1.2-1.4 0-.7.7-1.9 1.5-2.6 1.1-.9 1.4-2.2.9-4.3-.4-2.2-.3-2.8.6-2.2.9.6.9.3.2-1.2-.6-1-1-2.8-.9-3.8.1-1.4-.5-2-2.1-2.1-2.9-.2-3.6-.9-2.9-2.9.8-2 3.4-1.9 4 .2.3 1.2.5.8.6-.9 0-1.5-.3-3-.9-3.3-.5-.3-1-2.6-1-5 0-3.1.5-4.5 1.7-4.9 1.5-.6 1.3-1-1.2-3.1-2.8-2.2-2.9-2.4-.7-2.2 1.2.1 2.2.6 2.2 1.2 0 .5.5.2 1.1-.9.9-1.4.8-2-.1-2.6-1.5-.9-2.2-10-1-11.5.5-.6.5-1.7.1-2.4-.7-1.1-1-.9-1.5.7zm.4 12.3c0 1-2.7 1.9-3.4 1.2-1.2-1.2-.5-2.2 1.4-2 1.1.1 2 .4 2 .8zm-83.7 83.5c-.7.3-.9 1.2-.6 2.1.5 1.2.3 1.4-.7.8-.9-.6-1.2-.4-.8.7.4.8.1 1.5-.7 1.5-.7 0-1.2-1-1.1-2.3 0-1.2.4-2 .9-1.7.4.2.7-.1.7-.6 0-.6.8-1.1 1.8-1 .9 0 1.2.3.5.5zm-9.9 7c.3.8.2 1.2-.4.9-.6-.3-1-1-1-1.6 0-1.4.7-1.1 1.4.7zm-7.7 6.6c-.3.7-.5.2-.5-1.2s.2-1.9.5-1.3c.2.7.2 1.9 0 2.5zm-51 2c-.3.8-.6.5-.6-.6-.1-1.1.2-1.7.5-1.3.3.3.4 1.2.1 1.9zm52.3.2c0 .2-.7.7-1.6 1-.8.3-1.2.2-.9-.4.6-1 2.5-1.4 2.5-.6zm1.3 12.3c-.7.2-1.9.2-2.5 0-.7-.3-.2-.5 1.2-.5s1.9.2 1.3.5zM192.1 358.2c-.1 1-.5 1.8-.9 1.8-.5 0-1.4 1.6-2.2 3.5-.8 1.9-1.7 3.5-2.1 3.5-1.3 0-2.8 7-2 9.2.7 1.8 1.1 1.5 3.3-2.8 2.9-5.8 5.2-13.7 4.5-15.6-.4-.9-.6-.7-.6.4zM246.5 362.2c-3.3.4-7.1 1.3-8.5 1.9-1.4.7-3.1 1.2-3.7 1-.8-.1-1 .4-.7 1.4.5 1.1 0 1.8-1.4 2.2-1.7.4-1.9.8-.9 1.7.7.7 2 1.5 3 1.9.9.3 1.7 1.1 1.7 1.7 0 .5.6 1 1.4 1 1.4 0 3 2.9 2.1 3.8-.3.3-.5 0-.5-.6 0-.7-.4-1.2-1-1.2-.5 0-1 .4-1 1 0 .5-.9 1.9-2.1 3.1-2.7 2.7-1.7 3.7 1.5 1.5 1.4-.9 2.8-1.2 3.1-.7.3.5.1 1.2-.4 1.6-.6.3-.7 1.3-.4 2.3 1 2.5 3.3 4.6 4.1 3.7.4-.4.1-1-.5-1.2-1.5-.5-1.7-3.3-.3-3.3.6 0 1 .7 1 1.5s.5 1.5 1 1.5c.6 0 1 .7 1 1.5 0 2.3 1.7 1.8 2.3-.7l.6-2.2 2.3 2.1c1.7 1.6 2.8 1.9 4.6 1.2 2.6-1 2.7-1.8.7-4.5-1.3-1.6-1.4-1.6-.9-.2.3 1 .1 1.8-.5 1.8-1.1 0-1.3-.5-1.4-5.5 0-3 0-3-.4-.3-.2 1.6-.8 2.8-1.3 2.8s-.7-1.5-.4-3.3c.8-4.8 1.2-5.7 2.4-5.7.6 0 .9.4.5 1-.8 1.2 1.7 6.9 4.4 9.9l2.1 2.4v-2.9c0-1.7-.5-3.5-1.1-4.1-.7-.7-.5-1.2.9-1.5 1.5-.4 1.8-.1 1.5 1.2-.7 2.7 1.4 3.4 2.7.9.7-1.2.8-1.9.2-1.5-1 .6-.9-4.8.2-9.4.5-1.9.4-2-.2-.6-.8 1.8-.9 1.8-1.5.2-.9-2.3-.9-2.8.2-2.2 1 .6 7.1-4.6 7.1-6.1 0-1.2-13.9-1.2-23.5-.1zm13.4 13.8c-.1 2.2-.2 2.1-1-.8-.8-2.8-1.2-3.1-2.8-2.2-1.4.7-2 .6-2.4-.4-.4-1 0-1.2 1.4-.9 1.2.3 1.9 0 1.9-.8s.6-.5 1.5.7c.8 1 1.4 3 1.4 4.4zm1.9-2.9c-.3.8-.7.3-1.1-1-.4-1.7-.3-2.1.5-1.3.5.5.8 1.6.6 2.3zm-4.7 6.1c-1.1 1.1-1.3 1-.7 0 .4-.7.2-2.1-.5-3-1.2-1.5-1.1-1.5.6 0 1.6 1.5 1.7 2 .6 3zm-13.4-2.6c-.3.3-1.2.4-1.9.1-.8-.3-.5-.6.6-.6 1.1-.1 1.7.2 1.3.5zm9.1 10.4c.7 1.1.8 2 .2 2-.5 0-1.4-.9-2-2-.6-1.1-.7-2-.3-2 .5 0 1.4.9 2.1 2zM213 373.6c0 .8.5 1.2 1 .9.6-.4.8-1.1.5-1.6-.9-1.4-1.5-1.1-1.5.7z"/><path d="M218.4 376.6c-.8 1.9-1.9 3.2-2.5 2.9-.7-.5-.6-1.1.1-2 .9-1.1.7-1.4-.8-1.2-1.7.1-1.9.5-1.1 2.6.6 1.3.7 3.2.4 4-.3 1 .1.9 1.1-.4l1.6-2-.2 2c-.6 5.7 0 7.2 2.5 7.2 1.4 0 2.5-.5 2.5-1.2s.7-1.9 1.7-2.6c1.5-1.3 1.5-1.2.2.8-1.2 2-1.1 2.5.4 4 1.8 1.7 1.8 1.7 1.3-1.2-.4-1.7-.3-2.3 0-1.5 1.2 2.6 4.6 4.1 4 1.7-.1-.6-.1-.9.1-.5.3.5 1.7.8 3.1.8 1.9 0 2.3-.3 1.3-.9-.7-.5-1-1.4-.6-2 .4-.7.1-1.9-.6-2.7-.9-1.1-.9-1.8-.1-2.6 1.7-1.7 1.5-3.1-.4-2.4-1.2.5-1.5.2-1-.9.3-.9.2-1.3-.3-1-.6.3-1.4-.3-2-1.2-.8-1.5-1.2-1.6-2.3-.5-1.1 1.1-1 1.3.2 1 1-.2 1.4.3 1.2 1.6-.2 1.2.1 1.6.9 1 .8-.5 1-.3.4.6-.6 1-1.2.7-2.6-1.1-.9-1.3-1.7-2.8-1.6-3.3.1-.5-1.1-1.2-2.6-1.7-2.6-.7-3-.5-4.3 2.7zm5.6-1.2c0 .2-.7.7-1.6 1-.8.3-1.2.2-.9-.4.6-1 2.5-1.4 2.5-.6zm-3.3 4.7c-.9.6-1.7 1.9-1.7 2.9 0 1.1-.4 2-.9 2-1.4 0 0-4.3 1.8-5.7.9-.6 1.8-.9 2.1-.6.3.2-.3.9-1.3 1.4zm7.3 2.5c0 .8-1.9 1.3-2.4.6-.3-.5.1-.9.9-.9s1.5.2 1.5.3zm-8.8 5.6c-.7.7-1.2.8-1.2.2 0-1.4 1.2-2.6 1.9-1.9.2.3-.1 1.1-.7 1.7zM209.6 376.2c.3.4.9.8 1.5.8.5 0 .9-.4.9-.8 0-.5-.7-.9-1.5-.9s-1.2.4-.9.9zM212.1 381c-.1 2.6-.4 3.1-1.1 2-.7-1.2-.9-1-.8.7.1 1.2.7 1.9 1.5 1.6.7-.3 1.3 0 1.3.7 0 .6.5.8 1.1.4.7-.4.8-.9.1-1.3-.6-.3-1.2-2.2-1.5-4.1l-.4-3.5-.2 3.5zM268 385.9c0 .6.4 1.3 1 1.6.6.3.7-.1.4-.9-.7-1.8-1.4-2.1-1.4-.7zM262.3 387.5c0 .8.4 1.2.9.9.5-.3.6-1 .3-1.5-.9-1.3-1.2-1.1-1.2.6zM213 389c0 .5.5 1 1 1 .6 0 1-.5 1-1 0-.6-.4-1-1-1-.5 0-1 .4-1 1zM214 391.4c0 .2.8 1 1.8 1.7 1.5 1.3 1.6 1.2.3-.4s-2.1-2.1-2.1-1.3zM296.5 392.1c-2.8.6-2.8.7-.5.9 1.4.1 1.9.4 1.2.7-.7.3-2.6 0-4.2-.6-2.1-.7-3-.7-3 .1 0 .5-.7.8-1.5.4-1.3-.5-1.4-.2-.4 1.7 1.1 2 1.1 2.1-.4.9-2.8-2.3-12.6-2.4-11.2-.1 1.1 1.6-.7 1-2.2-.9-.8-.9-1.1-1.1-.8-.4.5 1 0 1.3-1.6 1.2-5.4-.5-5.9-.2-5.4 3.2l.5 3.3-1-3.3c-.6-1.7-1.5-3.2-2.1-3.2-.6 0-.6.7.1 2 .9 1.7.8 2-.9 2-1.5 0-1.9-.5-1.4-1.7.4-1 .2-1.4-.4-1-.6.4-1.4.1-1.6-.5-.3-.8-.6-.6-.6.4-.1 1-.2 2.1-.3 2.5-.1.5 1.1 1.1 2.8 1.5l2.9.7-3-.1c-5.2 0-5.7.1-5.1 1.7.4 1.2.2 1.3-1.5.2-1.6-1-2.1-.9-2.8.2-.7 1.1-.9 1.1-1.4 0-.5-1.2-.7-1.2-1.5-.1-.5.8-1.2 1.3-1.6 1.3-.3-.1-.9-.1-1.3 0-4.3.6-9.7-1.6-8.9-3.7.3-.8.1-1.4-.3-1.4-.5 0-1.8-.3-2.8-.7-1.6-.6-1.6-.5-.4 1 .8 1 1.1 2.1.7 2.4-.4.4-1.1.1-1.6-.7-.8-1.2-1-1.1-1.1.5 0 1.1-.3 1.4-.6.7-.8-2.1-2.5-1.3-1.8 1 .6 1.8.4 2-1.1 1.4-1.1-.4-3.1-.9-4.5-1.1-5.5-.8-14.2-3.8-16-5.6-1-1-1.9-1.5-1.9-.9 0 1.1 7.4 6 9 6 .5 0 1 .4 1 1 0 .5.8 1 1.8 1s2.8.7 4 1.6c2.3 1.6 13.4 4.4 19.2 4.8 1.9.1 7.3-.3 12-1 12-1.7 18-2.3 18-1.8 0 .6-6.3 2.9-6.8 2.5-.1-.1-.9.5-1.8 1.3-.8.8-3 1.8-4.9 2.2-1.9.3-3.5 1.1-3.5 1.8 0 .6-.5.4-1-.4-.8-1.3-1-1.3-1 .2 0 .9.3 2.4.6 3.2.6 1.5.8 1.5 2-.1 1.1-1.5 1.6-1.6 3.3-.5 1.4.8 2.1.8 2.1.1 0-.5.8-.9 1.8-.8 2.6.3 8.2-1.2 8.2-2.2 0-.5.6-.6 1.4-.3.7.3 2-.2 2.8-1 .8-.8 3-2.1 4.9-2.9 1.9-.8 4.4-2.4 5.6-3.6 1.2-1.1 2.5-2.1 2.8-2.1 1.5 0 10.4-7.3 9.9-8.2-.4-.5.4-.4 1.7.2 1.8 1 2.4 1 3.3-.2.6-.8 1.7-1.3 2.4-1.1 1.5.6 1.5-.2.1-2.8-.5-1.1-1.4-1.7-2-1.4-.5.4-.9.2-.9-.3 0-1.5-2.2-1.9-5.5-1.1zm-19.2 7.9c-.3 1.1-.7 2-.9 2-.2 0-.4-.9-.4-2s.4-2 .9-2 .7.9.4 2z"/><path d="M221.1 396.6c0 1.1.3 1.4.6.6.3-.7.2-1.6-.1-1.9-.3-.4-.6.2-.5 1.3zM196.7 396.7c-1.4 1.4-.6 2.3 1.2 1.4 1.4-.8 2.2-.7 3.1.4 1.4 1.7 4.1.9 3.3-1.1-.8-2-2.6-1.7-1.9.3.6 1.7.5 1.7-.8 0s-3.7-2.2-4.9-1zM247.7 400.1c.4 1.5.9 1.6 2.4.8 2.5-1.3 2.4-1.6-.5-2.1-1.9-.4-2.2-.1-1.9 1.3zM240.5 400.1c-1.7.8-1.6.8.7.4 1.5-.3 3 0 3.3.5.4.6 1.1.7 1.7.4.6-.4.5-1-.3-1.5-1.7-1.1-2.8-1-5.4.2zM240.5 403c-.4.6.3 1 1.4 1 2.5 0 2.7-.6.6-1.3-.8-.4-1.7-.2-2 .3zM226 415.4c0 .9.5 1.6 1 1.6.6 0 1-.4 1-.9 0-.6-.4-1.3-1-1.6-.5-.3-1 .1-1 .9zM233 417c0 .5.5 1 1.1 1 .5 0 .7-.5.4-1-.3-.6-.8-1-1.1-1-.2 0-.4.4-.4 1zM312 422.5c0 1.4.4 2.5.9 2.5.4 0 .6-1.1.3-2.5-.2-1.4-.6-2.5-.8-2.5-.2 0-.4 1.1-.4 2.5zM318.6 425.3c.3 1 .9 1.5 1.2 1.2.3-.3 0-1.1-.7-1.8-1-.9-1.1-.8-.5.6zM312.5 427.2c-.4 1-.3 2.9.2 4.2l.8 2.5 1.1-2.4c.9-1.9.9-2.8-.1-4.2-1.3-1.7-1.4-1.7-2-.1zm1.2 3c-.3.8-.6.5-.6-.6-.1-1.1.2-1.7.5-1.3.3.3.4 1.2.1 1.9zM250.6 438c.4 1.9.7 5 .9 6.7.3 4.8 1.5 5.3 1.4.7 0-2.1-.7-5.5-1.5-7.4l-1.4-3.5.6 3.5zM268.9 435.2c-.5 1.6-.4 4.6.2 4.2.4-.2.7-1.3.6-2.4-.1-1.7-.5-2.6-.8-1.8zM248.2 438.5c0 1.6.2 2.2.5 1.2.2-.9.2-2.3 0-3-.3-.6-.5.1-.5 1.8zM258.5 438.1c-.4.6-.5 1.2-.2 1.5.2.3.7-.2 1-1.1.7-1.7.1-2-.8-.4zM254.7 438.7c-.5.9 1 5.3 1.7 5.3.3 0 .1-1.1-.4-2.4-.5-1.3-.6-2.7-.3-3 .4-.3.4-.6 0-.6-.3 0-.8.3-1 .7zM260.3 440.6c0 .8.3 1.4.6 1.4.8 0 3.7-1.9 3.1-2.1-.3 0-1.2-.2-2.1-.4-.9-.1-1.6.4-1.6 1.1zM244.2 441.5c-.1 2.4 1.6 6.7 1.7 4.5.1-1.3.3-1.3 1.2 0 .9 1.2 1 1.2.5-.3-.3-1-.6-2.3-.6-2.8 0-.6-.4-.8-.9-.4-.5.3-1.2-.3-1.4-1.2-.4-1.5-.5-1.5-.5.2zM265 442c0 .5.5 1 1 1 .6 0 1-.5 1-1 0-.6-.4-1-1-1-.5 0-1 .4-1 1zM165 446c-.6 1.1-2 2-3.1 2-1.8 0-4.8 2.6-8.6 7.3-2 2.5-1.6 6.7.5 6.7 2 0 6.2-3.9 6.2-5.8 0-.6.7-1.5 1.7-2 .9-.6 1.4-1.6 1-2.5-.6-1.7 1.1-2.7 5.1-2.8 1.5 0 2.1-.3 1.5-.6-.7-.2-1.3-1.3-1.3-2.4 0-2.5-1.6-2.4-3 .1zM197.7 446c-.3 1.1-.1 2 .4 2s.9-.9.9-2-.2-2-.4-2-.6.9-.9 2zM253.8 448c-.8 5.1-.6 5.6.8 3.2.5-.9.7-3.1.4-4.7-.6-2.8-.6-2.7-1.2 1.5zM312.1 445.6c0 1.1.3 1.4.6.6.3-.7.2-1.6-.1-1.9-.3-.4-.6.2-.5 1.3zM201.1 446.6c0 1.1.3 1.4.6.6.3-.7.2-1.6-.1-1.9-.3-.4-.6.2-.5 1.3zM262 445.9c0 .6.4 1.3 1 1.6.6.3.7-.1.4-.9-.7-1.8-1.4-2.1-1.4-.7zM300.4 449.4c.4 1 .1 2.5-.5 3.2-.6.7-.9 1.9-.6 2.6.4.8.8.4 1.3-1 .5-1.8.9-2 1.5-1 .5.7.9.8.8.3 0-.6-.7-2.1-1.5-3.5-.9-1.5-1.3-1.7-1-.6zM246.2 452c0 1.9.2 2.7.5 1.7.2-.9.2-2.5 0-3.5-.3-.9-.5-.1-.5 1.8zM295.2 451.5c0 1.6.2 2.2.5 1.2.2-.9.2-2.3 0-3-.3-.6-.5.1-.5 1.8zM452.6 451.9c-.3.5-.8 2.4-1 4.2-.6 4.5-1.4 6.5-5.1 12.4-4.9 7.7-9.5 16.5-9.5 18 0 .7-.6 2.6-1.4 4.2-.7 1.5-2.1 4.4-2.9 6.3-.9 1.9-2.7 5.9-4.1 8.9-1.5 3-2.6 5.6-2.6 5.8 0 .1 11.7.3 26.1.3 15.6 0 25.8-.4 25.4-.9-.3-.5-.1-1.2.5-1.6.5-.3 1 .1 1 1 0 1.1.8 1.5 3 1.3 2.9-.2 2.9-.3 1.3-2.7-.9-1.4-3.4-4.3-5.5-6.5-2.2-2.3-5.3-6.1-7-8.4-2.7-3.9-3-5-2.6-10 .3-3.2.9-6.6 1.4-7.7.6-1.5.1-1.3-1.8.7-2.5 2.8-5 4-3 1.5 1.5-1.9 2.5-7.7 1.3-7.7-.6 0-1.4.1-1.7.2-.3.2-1-.5-1.6-1.6-.7-1.3-.7-2 .1-2.5 2.2-1.4 5.6-.4 6.8 2 1 1.9 1.3 2 1.3.6 0-4.4-5.1-9.8-6.2-6.5-.2.6-1.3 1.2-2.4 1.2-1.1.1-2.5.5-3.1.9-.7.5-1.6-.1-2.2-1.2-1.7-3.1-1.3-4.1 1.6-4.1 2.7 0 2.7 0-.7-1.9-2.5-1.3-3.4-2.4-3.2-3.9.3-2.2-1.3-3.8-2.2-2.3zm9.4 21c0 .6-.4 1.3-1 1.6-.5.3-1-.1-1-.9 0-.9.5-1.6 1-1.6.6 0 1 .4 1 .9zm-11.1 18c.8.5 1.1 1.6.6 3-.8 2.5-1.8 2.7-3.6.4-1.2-1.4-1.2-1.6 0-.8 1.1.6 1.3.3.9-1.3-.7-2.4-.1-2.7 2.1-1.3zM259 453c0 .5.5 1 1.1 1 .5 0 .7-.5.4-1-.3-.6-.8-1-1.1-1-.2 0-.4.4-.4 1z"/><path d="M457 454c0 .5.4 1 .9 1s1.6.7 2.5 1.5c.8.8 2.9 1.8 4.5 2.1 3.9.8 4.3-1.6.6-4-2.7-1.8-8.5-2.2-8.5-.6zM287 459.6c0 .8.5 1.2 1 .9.6-.4.8-1.1.5-1.6-.9-1.4-1.5-1.1-1.5.7zM266 461.9c0 1.1.5 2.3 1 2.6.6.4 1-.5 1-1.9s-.4-2.6-1-2.6c-.5 0-1 .9-1 1.9zM472.7 463c.3 1.1.7 2 .9 2 .2 0 .4-.9.4-2s-.4-2-.9-2-.7.9-.4 2zM281.6 467.5c-.3.8-.1 1.5.4 1.5.6 0 1-.7 1-1.5s-.2-1.5-.4-1.5-.6.7-1 1.5zM481 469.4c0 3.1.6 3.4 1.3.6.3-1.1.1-2.3-.4-2.6-.5-.3-.9.6-.9 2zM237 470c0 .5.5 1 1 1 .6 0 1-.5 1-1 0-.6-.4-1-1-1-.5 0-1 .4-1 1z"/><path d="M479 471.8c0 1.8 2.9 2.7 4.3 1.3.9-.9.8-1.1-.7-.5-1.1.4-2.1.2-2.7-.7-.6-1-.9-1.1-.9-.1zM488.1 474.6c-2.3 2.9-2.9 7.8-.9 7.2 2.1-.7 5.3-7.7 4.1-8.9-.7-.7-1.7-.2-3.2 1.7zM475.3 478.7c-3.1.4-3.3.7-3.3 4.5 0 3.5.9 5.1 5.7 11.2 3.2 3.9 8.1 9.4 11.1 12.2l5.3 5.1 8.2.2c5.8.1 7.8-.2 6.7-.9-.8-.5-2.3-1-3.2-1-1 0-3.3-1.4-5.1-3-1.9-1.7-3.9-3-4.3-3-1.2-.1-8.9-5.9-8.9-6.8-.1-1.2-2.4-4.8-2.5-3.7-.1 2-2-2.1-2-4.4 0-1.5-.5-2.1-1.3-1.8-1 .4-1.3-.7-1.3-4.4.1-2.8-.3-4.8-.9-4.7-.5 0-2.5.3-4.2.5zM506.7 482.6c-.9.9 2.4 6.4 3.9 6.4 2.4 0 1.7-4.6-1-5.8-1.3-.6-2.6-.8-2.9-.6z"/><path d="M487 485.2c.1.7 1 2.4 2.1 3.7 1.7 2 2.2 2.2 2.9 1.1.7-1.2 1-1.1 1.6.5.4 1.1 1.1 2.3 1.6 2.6.5.3 1 1.5 1.1 2.6.1 1.4.6 1.9 1.9 1.5 1-.2 1.5-.9 1.1-1.4-.3-.6-.7-2-.7-3.2-.1-1.1-.7-2-1.3-1.9-.6.1-1-.9-1-2.3 0-3.5-1.8-5.1-3.7-3.5-1.1.9-2 1-3.5.1-1.6-.8-2.1-.8-2.1.2zM501.6 486.7c-.4.9-.3 2 .2 2.5.6.6 1-.1 1-1.6 0-3-.3-3.2-1.2-.9zM504 490c0 .5.5 1 1 1 .6 0 1.5 1.1 2 2.4.5 1.4 1.8 3 3 3.6 3.3 1.8 2.5-1.9-1.2-5.2-3.3-2.9-4.8-3.5-4.8-1.8zM113.4 492.2c-1.9 2.2-6.8 10-10.5 16.5L101 512h4.3c4.1 0 4.4-.2 5.6-3.8.7-2 2-5.3 2.8-7.2 1.3-2.8 2.6-11 1.8-11-.1 0-1 1-2.1 2.2zM503.3 499.9c.1 1.1.9 2.2 1.9 2.4 2.4.7 2.3-1.9-.1-3.3-1.7-.8-2-.7-1.8.9zM508.5 500c-.7 1.1 1.1 4 2.5 4 .4 0 .5-1.1.2-2.5-.5-2.6-1.6-3.2-2.7-1.5z"/></svg>