<svg viewBox="0 0 451 451" version="1.1" xmlns="http://www.w3.org/2000/svg" xmlns:xlink="http://www.w3.org/1999/xlink">
    <defs>
        <path d="M182.15,197.1 C208.85,192 225.95,188.1 249.35,183.6 C227.15,190.2 201.95,197.4 182.15,202.5 C182.75,212.4 182.75,221.7 183.05,230.4 C184.55,249.3 186.35,255.9 187.55,257.7 C189.95,261.3 184.55,264.9 182.15,261.3 C177.65,254.7 176.45,234.3 175.85,203.7 C162.95,207 148.55,210 134.45,212.4 C124.25,214.5 111.95,216.3 101.15,216.9 C100.85,220.8 100.85,226.8 100.85,230.4 C100.85,236.7 101.15,246.6 102.65,252.3 C102.95,254.7 103.85,259.2 106.25,259.2 C106.55,259.2 108.05,258.3 108.35,257.7 C110.75,256.8 112.55,259.5 111.05,261.3 C109.85,262.8 107.45,264 105.35,263.7 C100.25,263.7 98.15,258.6 96.65,253.8 C94.85,246.9 94.55,238.8 94.55,230.4 L94.55,217.2 C90.05,217.2 85.55,217.2 81.05,216.9 C76.85,216.3 72.05,216 68.45,213.3 C65.15,211.5 63.95,208.8 63.95,206.1 C63.95,204.3 65.15,202.8 66.95,202.8 C68.45,202.8 70.25,203.7 70.25,205.5 C70.25,208.8 78.65,209.7 81.35,210 C85.55,210.6 90.95,210 94.55,210 C94.85,198.9 95.45,187.2 95.45,176.4 C95.75,165.9 95.75,155.7 95.75,145.2 C95.75,141.3 102.05,140.7 102.05,145.2 L102.05,176.4 C101.75,188.1 101.15,201 101.15,209.7 C112.85,208.8 125.15,207 133.55,205.5 C147.65,203.7 162.35,201 175.85,198.3 C175.55,177.6 175.55,157.5 174.95,142.5 C174.05,126.3 172.85,123.3 172.25,122.7 C169.25,120 173.75,115.2 176.75,118.2 C178.55,120 180.35,125.1 181.25,141.3 C181.85,156 181.85,176.7 182.15,197.1 Z M250.25,291 C251.45,298.8 252.05,306.9 250.55,314.4 C249.65,318.6 248.75,322.5 245.15,326.1 C242.45,329.4 238.85,332.1 234.95,333.3 C227.75,336.9 219.65,337.8 211.55,337.8 C203.75,337.8 195.35,336.9 188.15,334.2 C182.15,332.1 176.45,329.4 172.85,324.9 C171.05,323.1 169.55,321.6 168.65,319.8 C167.75,317.1 171.05,315.3 172.25,318 C173.15,319.5 174.65,320.4 175.55,321.6 C179.15,325.2 184.55,327.9 189.35,329.4 C195.65,331.5 203.45,333 211.55,333 C218.75,332.4 226.25,331.5 232.55,328.5 C235.85,327 238.85,325.2 241.25,322.5 C244.25,319.5 244.25,315.9 244.85,313.5 C246.05,306.9 245.15,298.8 244.25,291.6 C242.15,276.6 237.65,261.3 234.95,246.6 C234.35,243 234.05,238.8 234.05,235.2 C233.45,229.8 234.05,226.2 234.35,222.6 C234.95,218.7 241.55,219.9 240.65,224.1 C240.35,227.7 240.35,231.3 240.35,234.9 C240.35,238.5 240.65,242.1 241.55,245.7 C243.35,259.5 247.85,276.3 250.25,291 Z M239.45,195.3 C236.15,190.8 244.25,187.5 245.15,191.7 C245.15,192 245.75,192.9 246.65,193.8 C248.75,196.2 246.05,199.2 243.95,198.3 C241.55,197.4 239.75,196.2 239.45,195.3 Z M381.35,235.2 C382.25,242.4 376.85,248.4 371.75,253.2 C360.65,262.5 342.95,271.2 329.75,277.2 C308.45,286.5 284.75,294.9 262.55,302.1 C232.55,312 202.25,321 171.05,328.2 C155.45,332.1 140.15,335.1 124.55,338.1 C136.25,334.5 149.75,330.6 170.15,324.6 C203.15,314.7 235.85,304.2 260.45,295.8 C282.05,288.3 306.05,279.6 326.75,270.6 C339.05,265.2 356.75,256.8 367.25,247.8 C370.25,245.1 375.05,240.3 374.75,236.1 C374.45,233.1 371.75,230.7 369.35,229.2 C360.05,222.9 342.65,219.6 331.25,218.4 C318.35,217.5 304.85,217.8 292.85,219.6 C293.15,226.8 294.05,235.2 295.25,242.1 C295.55,244.8 296.15,247.8 297.05,250.5 C298.25,254.4 292.25,256.5 290.75,252.3 C289.85,249.6 289.25,246 288.95,243.3 C287.75,236.1 286.85,227.7 286.25,220.5 C280.25,221.7 279.95,216.3 282.65,214.8 C283.85,214.5 284.75,213.9 285.95,213.3 C285.65,208.2 285.35,203.4 285.05,198.6 C284.45,192.9 283.85,187.2 282.35,181.5 C281.45,177.3 287.75,176.1 288.65,180.3 C289.55,183 289.85,186 290.45,189 C291.35,195.9 291.95,202.8 292.25,209.7 C298.55,206.1 304.85,202.5 311.15,198.3 C322.25,191.1 333.65,182.4 342.35,172.2 C346.55,167.4 352.55,159.6 351.65,153 C351.05,148.8 346.85,146.1 342.95,144 C334.25,140.1 321.05,138.6 311.75,138 C295.85,136.8 278.45,137.7 262.85,139.8 C252.05,141.3 241.25,143.4 231.05,146.7 C225.35,148.5 218.15,151.2 213.35,155.1 C209.75,158.4 207.95,160.2 206.75,163.5 C205.55,162.3 204.95,160.8 204.95,159 C204.95,155.7 206.75,152.4 209.45,150.3 C214.55,145.8 222.35,142.5 228.65,140.1 C239.45,136.5 250.55,134.1 261.65,132.6 C277.85,130.2 295.85,129.3 312.35,130.5 C322.85,131.1 336.35,133.2 345.95,137.7 C352.25,140.7 357.65,145.2 358.55,152.1 C360.05,161.1 353.45,170.1 347.45,176.7 C338.15,187.2 326.45,195.9 314.75,203.7 C310.25,206.7 305.45,209.4 300.95,212.1 C311.45,211.2 321.95,211.2 331.85,212.1 C344.75,213 362.45,216.6 373.25,223.5 C377.45,226.5 381.05,230.1 381.35,235.2 Z" id="path-1"></path>
    </defs>
    <circle id="Oval" stroke="#FFFFFF" fill="#23242C" fill-rule="nonzero" cx="225.5" cy="225.5" r="225"></circle>
    <g id="HjB">
        <use fill="#000000" xlink:href="#path-1"></use>
        <use fill="#FFFFFF" xlink:href="#path-1"></use>
    </g>
</svg>
