<svg id="svg" version="1.1" width="245" height="77" preserveAspectRatio="none" xmlns="http://www.w3.org/2000/svg"><path d="M200.500 8.070 C 183.270 9.363,155.225 11.067,136.283 11.972 C 126.263 12.450,117.706 13.064,117.267 13.335 C 116.828 13.606,111.751 13.948,105.984 14.094 C 100.218 14.240,93.925 14.694,92.000 15.104 C 88.114 15.930,57.696 17.652,31.450 18.532 C 20.352 18.903,13.416 18.728,11.579 18.030 C 5.665 15.782,5.108 19.744,7.495 47.090 C 7.873 51.422,11.698 62.867,13.668 65.561 C 15.285 67.772,14.535 67.749,49.500 66.660 C 72.419 65.946,83.658 65.113,105.500 62.509 C 112.650 61.656,128.985 60.522,141.799 59.988 C 155.693 59.409,165.975 58.549,167.270 57.856 C 169.747 56.530,187.461 55.908,190.535 57.039 C 191.771 57.493,193.287 57.263,194.394 56.454 C 195.617 55.560,197.796 55.307,201.004 55.687 C 203.636 55.999,210.112 55.930,215.395 55.533 C 223.925 54.894,225.000 54.600,225.000 52.907 C 225.000 51.858,225.444 51.000,225.987 51.000 C 228.414 51.000,230.685 40.337,232.511 20.375 C 233.109 13.831,231.892 9.566,229.115 8.477 C 226.543 7.468,211.387 7.252,200.500 8.070 M197.000 47.000 C 197.000 47.550,196.802 48.000,196.559 48.000 C 196.316 48.000,195.840 47.550,195.500 47.000 C 195.160 46.450,195.359 46.000,195.941 46.000 C 196.523 46.000,197.000 46.450,197.000 47.000 " stroke="none" fill="rgb(247, 59, 106)" fill-rule="evenodd"/></svg>
