<svg xmlns="http://www.w3.org/2000/svg" xmlns:xlink="http://www.w3.org/1999/xlink" width="100%" height="100%" viewBox="98 160 190 106" preserveAspectRatio="none" >
  <defs>
    <linearGradient id="watercolour" x1="0%" y1="28%" x2="100%" y2="80%">
      <stop offset="0%" stop-color="rgba(247, 59, 106, 1)"/>
      <stop offset="3%" stop-color="rgba(247, 59, 106, 0.53)"/>
      <stop offset="12%" stop-color="rgba(247, 59, 106, 0.66)"/>
      <stop offset="18%" stop-color="rgba(247, 59, 106, 0.64)"/>
      <stop offset="43%" stop-color="rgba(247, 59, 106, 0.63)"/>
      <stop offset="58%" stop-color="rgba(247, 59, 106, 0.48)"/>
      <stop offset="63%" stop-color="rgba(247, 59, 106, 0.53)"/>
      <stop offset="72%" stop-color="rgba(247, 59, 106, 0.36)"/>
      <stop offset="76%" stop-color="rgba(247, 59, 106, 0.4)"/>
      <stop offset="82%" stop-color="rgba(247, 59, 106, 0.36)"/>
      <stop offset="96%" stop-color="rgba(247, 59, 106, 0.23)"/>
      <stop offset="100%" stop-color="rgba(247, 59, 106, 0.43)"/>
    </linearGradient>
  </defs>
  <path d="M101.15,188.29c5.3,0.1,11.9-3.1,16,0.3c-2.4,10.8-11.6,14.6-14.2,24.9c17.6-20,17.7-30.1,35.4-50.1c-7.9,22.4-16.7,27.2-24.5,49.7c19.4-19.8,19.9-29.8,39.3-49.6c-9.7,28.6-18.3,33.6-28,62.2c20.1-23.3,20.1-33.3,40.2-56.6c-19.1,44.3-27.9,49.1-47,93.4c31-36.6,31.3-46.6,62.3-83.1c-15.2,36.5-24,41.2-39.2,77.7c32.9-38.3,33.3-48.3,66.2-86.6c-17.9,43.7-26.6,48.5-44.6,92.1c29-39.7,28.6-49.7,57.6-89.4c-12,33.6-20.6,38.6-32.6,72.3c24.3-27.9,24.5-37.9,48.7-65.9c-8.2,23.6-17,28.4-25.1,52c14.9-14.7,15.1-24.7,35.92-46.18c-5.12,17.18-9.994,21.774-26.52,52.701c36.182-51.171,11.818-10.844,12.909-1.851c14.318-36.565,18.812-29.529,30.358-44.348c-12.382,25.968-21.003,41.844-23.649,52.426c31.574-49.49,18.541-41.054,18.917-3.596c8.947-25.626,10.895-23.344,23.472-38.005" style="stroke:url(#watercolour);fill:none;stroke-width:7.52px;"/>
</svg>
